<svg width="{66}" height="{30}" viewBox="0 0 66 30" classname="{cn(className)}" xmlns="http://www.w3.org/2000/svg">
  <path d="M-42.7781 28.0663C-44.6622 28.3595 -46.5794 28.4474 -48.5627 28.6816L-54.612 12.9786V29.3555C-56.4961 29.5313 -58.215 29.7656 -60 30V0H-54.9754L-48.1 17.0217V0H-42.7781V28.0663ZM-32.3655 10.9863C-30.3159 10.9863 -27.1757 10.8984 -25.2916 10.8984V15.5858C-27.6386 15.5858 -30.3821 15.5858 -32.3655 15.6737V22.6465C-29.2581 22.4708 -26.1509 22.2362 -23.0108 22.1483V26.6597L-37.6545 27.6854V0H-23.0108V4.68751H-32.3655V10.9863V10.9863ZM-3.34274 4.68762H-8.82991V26.2501C-10.6149 26.2501 -12.4 26.2501 -14.1186 26.3085V4.68762H-19.6057V0H-3.34249L-3.34274 4.68762V4.68762ZM5.25166 10.6642H12.491V15.3516H5.25166V25.9864H0.0615839V0H14.8379V4.68751H5.25166V10.6642V10.6642ZM23.4323 21.8848C26.4404 21.9432 29.4814 22.1486 32.4235 22.2948V26.9238C27.6966 26.66 22.9696 26.3966 18.1435 26.3085V0H23.4323V21.8848ZM36.8859 27.2461C38.5717 27.3341 40.3568 27.422 42.0756 27.5975V0H36.8859V27.2461V27.2461ZM65.2478 0L58.5374 14.2676L65.2478 30C63.2643 29.7656 61.281 29.4433 59.2976 29.1503L55.4963 20.4786L51.6292 28.4474C49.7116 28.1542 47.8605 28.0663 45.9436 27.8319L52.753 14.0917L46.6045 0H52.2898L55.7607 7.88088L59.4631 0H65.2478V0Z" fill="#D81F26" />
</svg>
